<?xml version="1.0" standalone="no"?>
<!DOCTYPE svg PUBLIC "-//W3C//DTD SVG 20010904//EN"
 "http://www.w3.org/TR/2001/REC-SVG-20010904/DTD/svg10.dtd">
<svg version="1.0" xmlns="http://www.w3.org/2000/svg"
 width="300.000000pt" height="245.000000pt" viewBox="0 0 300.000000 245.000000"
 preserveAspectRatio="xMidYMid meet">
<metadata>
Created by potrace 1.10, written by Peter Selinger 2001-2011
</metadata>
<g transform="translate(0.000000,245.000000) scale(0.100000,-0.100000)"
fill="#000000" stroke="none">
<path d="M327 2204 c-3 -3 3 -21 14 -39 19 -31 40 -45 169 -104 19 -9 37 -19
38 -23 2 -5 9 -8 15 -8 14 0 234 -108 270 -133 15 -10 36 -36 46 -57 16 -34
17 -40 3 -45 -8 -3 -22 1 -31 8 -21 18 -283 147 -299 147 -7 0 -12 4 -12 9 0
5 -13 12 -30 16 -16 4 -30 11 -30 16 0 5 -7 9 -15 9 -9 0 -18 7 -21 15 -7 16
-39 20 -48 6 -3 -5 1 -14 9 -21 8 -7 15 -18 15 -24 0 -15 36 -46 53 -46 7 0
22 -7 33 -15 10 -8 27 -15 37 -15 9 0 17 -4 17 -10 0 -5 8 -10 19 -10 10 0 24
-7 31 -15 7 -8 18 -15 24 -15 6 0 56 -23 111 -50 55 -27 108 -50 118 -50 9 0
17 -3 17 -7 1 -5 5 -27 9 -50 10 -53 -7 -63 -52 -29 -36 26 -157 86 -175 86
-7 0 -12 5 -12 10 0 6 -8 10 -19 10 -10 0 -24 7 -31 15 -7 8 -21 15 -31 15
-11 0 -19 3 -19 8 0 10 -69 47 -76 40 -6 -7 22 -66 42 -85 7 -7 22 -13 32 -13
11 0 22 -3 24 -7 2 -5 20 -16 41 -25 20 -10 54 -26 75 -35 20 -10 38 -21 40
-25 2 -5 12 -8 22 -8 9 0 23 -7 30 -15 7 -8 21 -15 31 -15 10 0 21 -4 24 -10
3 -5 14 -10 24 -10 15 0 20 -11 26 -46 3 -25 4 -49 0 -52 -3 -3 -18 2 -33 11
-15 10 -39 23 -54 28 -16 6 -28 15 -28 20 0 5 -7 9 -14 9 -8 0 -36 11 -62 25
-26 14 -51 25 -56 25 -5 0 -24 11 -42 25 -18 14 -36 25 -39 25 -14 0 -6 -33
13 -60 19 -26 131 -90 158 -90 7 0 12 -4 12 -10 0 -5 4 -10 10 -10 8 0 117
-48 129 -56 2 -2 6 -21 8 -44 4 -35 2 -40 -15 -40 -11 0 -27 7 -36 15 -8 8
-21 15 -30 15 -8 0 -17 4 -21 9 -6 11 -63 41 -77 41 -5 0 -25 12 -44 26 -29
23 -35 24 -40 10 -4 -9 1 -25 10 -35 9 -10 16 -22 16 -28 0 -10 33 -27 83 -42
17 -6 18 -23 17 -271 l0 -265 27 -12 c15 -7 33 -13 40 -13 7 0 13 -4 13 -9 0
-5 10 -11 23 -13 22 -3 22 -6 25 -165 l2 -161 47 -39 c26 -21 55 -46 65 -56
10 -9 20 -17 23 -17 4 0 20 -13 69 -55 20 -17 50 -35 69 -41 9 -4 17 -9 17
-13 0 -4 17 -15 38 -26 20 -11 39 -22 42 -25 14 -14 243 -120 260 -120 22 0
253 109 258 122 2 4 8 8 14 8 22 0 232 152 331 239 l27 24 0 159 c0 142 2 159
18 164 9 3 37 16 62 29 l45 22 1 264 c2 248 3 264 20 270 51 15 84 32 84 42 0
6 7 18 16 28 9 10 14 26 10 35 -5 14 -11 13 -40 -10 -19 -14 -42 -26 -50 -26
-9 0 -16 -4 -16 -8 0 -4 -23 -16 -51 -27 -28 -11 -55 -26 -61 -32 -6 -7 -19
-13 -29 -13 -15 0 -19 8 -19 39 l0 40 103 49 c56 27 123 59 149 71 47 21 88
65 88 95 0 22 -8 20 -46 -9 -18 -14 -37 -25 -43 -25 -13 0 -75 -33 -79 -42 -2
-5 -9 -8 -16 -8 -14 0 -102 -45 -123 -62 -20 -16 -33 1 -33 43 0 29 5 41 18
45 26 9 65 25 82 35 8 5 22 12 30 15 23 9 73 34 90 43 8 5 32 17 52 25 20 9
40 21 43 26 3 6 15 10 26 10 21 0 49 22 49 38 0 5 7 15 15 22 18 15 20 40 3
40 -6 0 -26 -11 -44 -25 -18 -14 -39 -25 -47 -25 -8 0 -20 -7 -27 -15 -7 -8
-21 -15 -31 -15 -11 0 -19 -4 -19 -10 0 -5 -7 -10 -15 -10 -13 0 -89 -35 -135
-61 -8 -5 -22 -12 -30 -16 -8 -4 -20 -13 -26 -21 -15 -21 -34 -6 -34 26 0 45
11 72 30 72 9 0 38 11 64 25 26 14 54 25 62 25 7 0 14 4 14 8 0 5 19 16 43 26
23 9 49 21 57 27 8 5 22 12 30 15 8 3 36 16 62 30 27 13 53 24 58 24 16 0 47
32 54 58 4 12 12 22 17 22 6 0 7 5 4 10 -9 15 -42 12 -49 -5 -3 -8 -12 -15
-21 -15 -8 0 -15 -4 -15 -9 0 -5 -13 -12 -30 -16 -16 -4 -30 -11 -30 -16 0 -5
-6 -9 -12 -9 -7 0 -49 -18 -93 -40 -44 -22 -85 -40 -92 -40 -6 0 -13 -3 -15
-7 -1 -5 -23 -18 -48 -31 -25 -12 -53 -28 -62 -35 -22 -15 -31 -5 -22 27 7 28
79 106 98 106 6 0 56 23 111 50 55 28 105 50 111 50 7 0 14 3 16 8 2 4 21 15
43 26 22 10 48 22 57 27 10 5 23 9 30 9 28 1 105 89 91 104 -10 10 -43 7 -43
-4 0 -6 -10 -15 -22 -20 -13 -6 -30 -14 -38 -19 -8 -5 -31 -17 -50 -25 -19 -9
-42 -20 -50 -25 -37 -22 -126 -61 -138 -61 -6 0 -12 -4 -12 -10 0 -5 -4 -10
-10 -10 -18 0 -157 -71 -182 -93 -42 -37 -61 -74 -55 -107 4 -17 2 -32 -5 -36
-14 -9 -48 31 -48 56 0 26 -173 200 -199 200 -5 0 -14 7 -21 15 -7 8 -21 15
-31 15 -11 0 -19 5 -19 10 0 6 -11 10 -25 10 -14 0 -36 6 -48 14 -26 16 -110
30 -187 30 -77 0 -161 -14 -187 -30 -12 -8 -29 -14 -37 -14 -18 0 -113 -49
-146 -75 -56 -44 -160 -155 -160 -170 0 -23 -30 -65 -47 -65 -10 0 -14 10 -13
33 1 17 2 39 1 48 -2 26 -66 85 -118 109 -26 12 -61 29 -78 38 -41 21 -51 26
-120 57 -33 15 -67 31 -75 36 -8 5 -31 16 -50 25 -19 8 -42 20 -50 25 -8 5
-25 13 -37 18 -11 6 -24 15 -28 20 -7 12 -28 15 -38 5z m1155 -379 l-1 -260
-65 -1 -66 -1 0 247 c0 188 3 250 13 258 11 9 84 20 111 17 4 0 8 -118 8 -260z
m176 241 c10 -10 13 -72 15 -254 2 -272 10 -249 -81 -248 l-54 1 -2 258 c-1
142 0 259 1 261 8 8 109 -8 121 -18z m-363 -256 c0 -132 -3 -240 -7 -241 -10
0 -335 0 -349 0 -7 1 -8 8 -4 19 4 9 11 35 16 57 11 55 32 115 41 115 5 0 8 7
8 15 0 20 66 109 116 157 42 39 153 117 169 117 6 1 10 -85 10 -239z m465 232
c0 -5 18 -19 41 -31 63 -36 147 -119 195 -194 24 -37 44 -73 44 -80 0 -7 7
-22 15 -33 8 -10 15 -37 15 -60 0 -22 5 -45 12 -52 6 -6 9 -14 6 -18 -5 -4
-287 -8 -353 -5 -6 1 -10 88 -10 241 0 222 1 240 18 240 9 0 17 -4 17 -8z
m-296 -537 c265 -1 506 1 536 4 85 10 90 7 90 -50 0 -27 -4 -49 -10 -49 -190
-3 -1134 1 -1140 5 -6 4 -10 26 -10 50 0 33 4 44 18 48 9 2 21 1 26 -1 5 -3
226 -6 490 -7z m-223 -150 c59 -2 112 -6 118 -9 6 -4 11 -18 11 -32 0 -24 -1
-24 -99 -24 -55 0 -102 4 -105 9 -3 4 -23 11 -43 15 -21 3 -47 13 -58 22 -17
13 -18 16 -5 25 8 5 29 7 45 3 17 -4 78 -8 136 -9z m714 9 c14 -6 14 -8 -1
-25 -10 -11 -35 -22 -56 -25 -21 -4 -41 -11 -44 -15 -3 -5 -50 -9 -105 -9
l-100 0 3 33 3 32 100 -3 c55 -2 111 1 125 7 30 12 53 13 75 5z m-360 -13 c6
-1 10 -59 10 -155 l0 -153 -28 -17 c-36 -20 -87 -21 -129 0 l-33 15 2 151 c1
86 6 153 11 157 8 5 110 6 167 2z m-625 -11 c0 -12 116 -70 141 -70 9 0 22 -7
29 -15 9 -10 39 -15 117 -17 l105 -3 0 -98 c-1 -98 -9 -127 -38 -127 -8 0 -14
-4 -14 -8 0 -5 -17 -18 -37 -29 -21 -12 -48 -31 -60 -42 l-22 -21 -33 20 c-18
11 -40 23 -48 26 -8 3 -51 24 -95 45 l-80 39 3 115 c3 67 0 127 -7 146 -6 17
-8 35 -5 40 7 12 44 11 44 -1z m1115 -144 l0 -153 -28 -17 c-16 -9 -35 -16
-42 -16 -7 0 -15 -3 -17 -7 -4 -10 -66 -43 -79 -43 -5 0 -27 -11 -49 -25 l-40
-25 -28 25 c-15 14 -31 25 -37 25 -6 0 -22 11 -36 24 -14 13 -35 27 -47 30
-12 4 -22 10 -23 14 0 4 -1 52 -1 107 l-2 100 100 3 c58 1 111 8 129 16 17 8
60 28 98 46 37 17 67 35 67 41 0 5 8 9 18 9 16 0 18 -13 17 -154z m-1218 110
c17 -16 23 -476 6 -476 -6 0 -15 5 -18 11 -4 5 -18 14 -31 19 l-24 10 0 230 0
230 28 -6 c15 -4 32 -12 39 -18z m1353 -206 l0 -230 -25 -10 c-14 -5 -25 -14
-25 -20 0 -5 -8 -10 -17 -10 -17 0 -18 17 -15 232 1 144 6 236 13 244 9 11 20
15 62 23 4 0 7 -103 7 -229z m-790 -125 c7 -8 19 -15 26 -15 8 0 23 -5 33 -11
14 -9 27 -8 59 7 23 10 42 21 42 26 0 10 47 11 52 1 3 -9 96 -73 104 -73 3 0
12 -6 20 -14 7 -8 18 -16 24 -18 8 -2 11 -99 11 -301 1 -302 -2 -327 -37 -327
-7 0 -17 -6 -21 -12 -4 -7 -18 -19 -30 -26 -20 -11 -23 -10 -23 5 0 10 0 129
0 264 l1 246 -85 58 c-68 46 -89 56 -110 51 -14 -3 -26 -11 -26 -16 0 -6 -4
-10 -9 -10 -5 0 -37 -19 -71 -42 l-61 -43 1 -250 c1 -137 1 -256 1 -264 -1 -9
-12 -5 -35 13 -19 14 -39 26 -44 26 -31 0 -34 31 -33 326 1 163 4 300 7 305 3
5 12 9 20 9 8 0 14 3 14 8 0 4 27 23 60 42 33 19 60 38 60 43 0 13 37 7 50 -8z
m653 -242 l-2 -247 -37 -38 c-19 -21 -40 -36 -45 -32 -5 3 -9 119 -9 263 0
237 1 259 18 265 9 3 28 13 42 21 14 8 27 15 30 15 3 0 4 -111 3 -247z m-1093
222 c7 -8 19 -15 26 -15 12 0 14 -46 14 -259 0 -143 -4 -262 -8 -265 -5 -3
-26 12 -46 33 l-37 38 -2 242 c-2 240 -2 241 19 241 12 0 27 -7 34 -15z m110
-46 c0 -5 14 -15 30 -20 l30 -11 0 -246 c0 -136 3 -264 6 -284 6 -32 4 -36
-12 -32 -11 3 -31 15 -46 27 l-27 22 -1 270 c0 149 -1 273 0 278 0 11 20 8 20
-4z m844 -17 c0 -12 -1 -136 -2 -274 l-2 -253 -33 -27 c-19 -14 -38 -23 -43
-20 -5 4 -7 121 -4 282 l5 275 28 13 c15 7 27 18 27 23 0 6 6 9 13 7 6 -3 12
-14 11 -26z m-414 -120 c0 -4 25 -22 55 -40 55 -33 55 -33 55 -83 0 -55 -12
-62 -51 -28 -13 11 -34 29 -47 40 -12 10 -27 19 -32 19 -5 0 -20 -9 -32 -19
-13 -11 -34 -29 -47 -40 -39 -34 -51 -27 -51 29 0 43 3 52 23 59 12 5 38 23
57 40 33 28 70 41 70 23z m19 -187 c13 -14 28 -25 35 -25 6 -1 21 -9 34 -20
22 -18 22 -22 20 -192 -3 -171 -3 -173 -25 -176 -13 -2 -23 -8 -23 -13 0 -5
-9 -9 -19 -9 -11 0 -23 -4 -26 -10 -3 -5 -19 -10 -35 -10 -16 0 -32 5 -35 10
-3 6 -15 10 -26 10 -10 0 -19 4 -19 9 0 5 -10 11 -22 13 -23 3 -23 5 -26 176
-2 170 -2 174 20 192 13 11 28 19 34 20 7 0 22 11 35 25 13 13 31 25 39 25 8
0 26 -12 39 -25z"/>
</g>
</svg>
